<?xml version="1.0" encoding="UTF-8"?>
<svg width="1200pt" height="1200pt" version="1.1" viewBox="0 0 1200 1200" xmlns="http://www.w3.org/2000/svg">
 <path d="m1186.6 481.07-251.58-5.7109h-306.39c0.39453-4.332-0.14453-26.352-2.3164-79.223-2.4492-59.629-26.953-84.121-26.953-84.121s-24.504 24.504-26.953 84.121c-2.1836 52.871-2.7344 74.891-2.3281 79.223h-306.42l-251.56 5.7109s-11.438 1.6328-11.438 10.621v21.238l224.41 18.781 192.95 10.621s141.68 8.1719 149.47 8.1719c5.8438 0 7.5977 3.7578 8.1133 8.7109l0.21484 5.2305c0 0.13281 0 0.26562 0.011719 0.39453l9.4805 244.37-76.633 10.824s-12.238 4.0781-12.238 13.055v14.734l88.883 8.9883 6.9961-10.285 4.8125 14.184 2.207 4.2461 2.207-4.2461 4.8008-14.184 7.0117 10.281 88.895-8.9883v-14.734c0-8.9766-12.277-13.055-12.277-13.055l-76.598-10.824 9.4805-244.37c0.011719-0.12109 0.011719-0.25391 0.011719-0.39453l0.21484-5.2305c0.50391-4.957 2.2578-8.7109 8.1016-8.7109 7.7773 0 149.48-8.1719 149.48-8.1719l192.94-10.621 224.4-18.781v-21.238c0.003906-8.9727-11.41-10.617-11.41-10.617zm-572.09-24.621s-2.2422 11.258-15.168 11.855c-12.938-0.60156-15.18-11.855-15.18-11.855s-1.5-36.254 1.4883-65.832c1.957-19.223 4.1055-31.836 13.691-32.711 9.5898 0.875 11.723 13.488 13.691 32.711 2.9883 29.578 1.4766 65.832 1.4766 65.832z"/>
</svg>
